<svg width="358" height="376" viewBox="0 0 358 376" fill="none" xmlns="http://www.w3.org/2000/svg">
<mask id="path-1-inside-1_61_588" fill="white">
<path d="M264.581 351.809C266.593 356.286 264.565 361.564 259.978 363.312C228.077 375.473 193.384 378.996 159.534 373.431C122.739 367.382 88.5494 350.86 61.1856 325.904C33.8217 300.948 14.4814 268.651 5.55221 233C-3.37697 197.349 -1.50416 159.904 10.9395 125.289C23.3831 90.6734 45.8527 60.4025 75.5747 38.2127C105.297 16.023 140.97 2.88595 178.19 0.423305C215.41 -2.03934 252.549 6.28022 285.02 24.355C314.839 40.953 339.524 65.1099 356.552 94.2412C359.056 98.5244 357.294 103.963 352.866 106.2V106.2C348.517 108.398 343.231 106.678 340.757 102.481C325.333 76.3108 303.075 54.6054 276.227 39.6605C246.792 23.2763 213.127 15.7349 179.388 17.9672C145.649 20.1995 113.312 32.1078 86.3703 52.2222C59.4282 72.3365 39.0601 99.7763 27.7803 131.154C16.5006 162.532 14.8029 196.474 22.897 228.791C30.991 261.108 48.5224 290.384 73.327 313.006C98.1315 335.628 129.123 350.605 162.477 356.088C192.954 361.099 224.184 357.982 252.94 347.138C257.457 345.434 262.603 347.405 264.581 351.809V351.809Z"/>
</mask>
<path d="M264.581 351.809C266.593 356.286 264.565 361.564 259.978 363.312C228.077 375.473 193.384 378.996 159.534 373.431C122.739 367.382 88.5494 350.86 61.1856 325.904C33.8217 300.948 14.4814 268.651 5.55221 233C-3.37697 197.349 -1.50416 159.904 10.9395 125.289C23.3831 90.6734 45.8527 60.4025 75.5747 38.2127C105.297 16.023 140.97 2.88595 178.19 0.423305C215.41 -2.03934 252.549 6.28022 285.02 24.355C314.839 40.953 339.524 65.1099 356.552 94.2412C359.056 98.5244 357.294 103.963 352.866 106.2V106.2C348.517 108.398 343.231 106.678 340.757 102.481C325.333 76.3108 303.075 54.6054 276.227 39.6605C246.792 23.2763 213.127 15.7349 179.388 17.9672C145.649 20.1995 113.312 32.1078 86.3703 52.2222C59.4282 72.3365 39.0601 99.7763 27.7803 131.154C16.5006 162.532 14.8029 196.474 22.897 228.791C30.991 261.108 48.5224 290.384 73.327 313.006C98.1315 335.628 129.123 350.605 162.477 356.088C192.954 361.099 224.184 357.982 252.94 347.138C257.457 345.434 262.603 347.405 264.581 351.809V351.809Z" fill="#D9D9D9" stroke="#D9D9D9" stroke-width="8" mask="url(#path-1-inside-1_61_588)"/>
</svg>
