<svg width="99" height="29" viewBox="0 0 99 29" fill="none" xmlns="http://www.w3.org/2000/svg">
<path d="M3.11111 29C2.25556 29 1.52341 28.6848 0.914667 28.0543C0.305926 27.4238 0.00103704 26.665 0 25.7778V3.22222C0 2.33611 0.304889 1.57781 0.914667 0.947333C1.52444 0.316852 2.25659 0.00107407 3.11111 0H14V3.22222H3.11111V25.7778H14V29H3.11111ZM20.2222 22.5556L18.0833 20.2194L22.05 16.1111H9.33333V12.8889H22.05L18.0833 8.78056L20.2222 6.44444L28 14.5L20.2222 22.5556Z" fill="#C93232"/>
<path d="M44.7188 17.3496H41.1152L41.0957 15.8359H44.3672C44.9076 15.8359 45.3796 15.7448 45.7832 15.5625C46.1868 15.3802 46.4993 15.1198 46.7207 14.7812C46.9486 14.4362 47.0625 14.026 47.0625 13.5508C47.0625 13.0299 46.9616 12.6068 46.7598 12.2812C46.5645 11.9492 46.2617 11.7083 45.8516 11.5586C45.4479 11.4023 44.9336 11.3242 44.3086 11.3242H41.5352V24H39.6504V9.78125H44.3086C45.0378 9.78125 45.6888 9.85612 46.2617 10.0059C46.8346 10.1491 47.3197 10.377 47.7168 10.6895C48.1204 10.9954 48.4264 11.3861 48.6348 11.8613C48.8431 12.3366 48.9473 12.9062 48.9473 13.5703C48.9473 14.1562 48.7975 14.6868 48.498 15.1621C48.1986 15.6309 47.7819 16.015 47.248 16.3145C46.7207 16.6139 46.1022 16.806 45.3926 16.8906L44.7188 17.3496ZM44.6309 24H40.373L41.4375 22.4668H44.6309C45.2298 22.4668 45.7376 22.3626 46.1543 22.1543C46.5775 21.946 46.8997 21.653 47.1211 21.2754C47.3424 20.8913 47.4531 20.4388 47.4531 19.918C47.4531 19.3906 47.3587 18.9349 47.1699 18.5508C46.9811 18.1667 46.6849 17.8704 46.2812 17.6621C45.8776 17.4538 45.3568 17.3496 44.7188 17.3496H42.0332L42.0527 15.8359H45.7246L46.125 16.3828C46.8086 16.4414 47.388 16.6367 47.8633 16.9688C48.3385 17.2943 48.6999 17.7109 48.9473 18.2188C49.2012 18.7266 49.3281 19.2865 49.3281 19.8984C49.3281 20.7839 49.1328 21.5326 48.7422 22.1445C48.3581 22.75 47.8145 23.2122 47.1113 23.5312C46.4082 23.8438 45.5814 24 44.6309 24ZM53.3223 17.0664H56.4961C57.349 17.0664 58.0684 17.2161 58.6543 17.5156C59.2402 17.8086 59.6829 18.2155 59.9824 18.7363C60.2884 19.2507 60.4414 19.8366 60.4414 20.4941C60.4414 20.9824 60.3568 21.4414 60.1875 21.8711C60.0182 22.2943 59.7643 22.6654 59.4258 22.9844C59.0938 23.3034 58.6803 23.554 58.1855 23.7363C57.6973 23.9121 57.1341 24 56.4961 24H52.0039V13.4336H53.8105V22.5156H56.4961C57.0169 22.5156 57.4336 22.4212 57.7461 22.2324C58.0586 22.0436 58.2832 21.7995 58.4199 21.5C58.5566 21.2005 58.625 20.888 58.625 20.5625C58.625 20.2435 58.5566 19.931 58.4199 19.625C58.2832 19.319 58.0586 19.0651 57.7461 18.8633C57.4336 18.6549 57.0169 18.5508 56.4961 18.5508H53.3223V17.0664ZM64.2012 13.4336V24H62.3945V13.4336H64.2012ZM69.3184 21.1387L74.1914 13.4336H76.0078V24H74.1914V16.2949L69.3184 24H67.5215V13.4336H69.3184V21.1387ZM73.2051 9.60547H74.6699C74.6699 10.1133 74.5527 10.5658 74.3184 10.9629C74.084 11.3535 73.7487 11.6595 73.3125 11.8809C72.8763 12.1022 72.3587 12.2129 71.7598 12.2129C70.8548 12.2129 70.1387 11.972 69.6113 11.4902C69.0905 11.002 68.8301 10.3737 68.8301 9.60547H70.2949C70.2949 9.98958 70.4056 10.3281 70.627 10.6211C70.8483 10.9141 71.2259 11.0605 71.7598 11.0605C72.2806 11.0605 72.6517 10.9141 72.873 10.6211C73.0944 10.3281 73.2051 9.98958 73.2051 9.60547ZM83.2148 13.4336V24H81.3984V13.4336H83.2148ZM86.7598 13.4336V14.8984H77.9219V13.4336H86.7598ZM90.4902 21.1387L95.3633 13.4336H97.1797V24H95.3633V16.2949L90.4902 24H88.6934V13.4336H90.4902V21.1387Z" fill="#C93232"/>
</svg>
