<svg width="18" height="17" viewBox="0 0 18 17" fill="none" xmlns="http://www.w3.org/2000/svg">
<path d="M5.55938 8.5C4.54688 8.53162 3.71875 8.93638 3.075 9.71429H1.81875C1.30625 9.71429 0.875 9.58622 0.525 9.33008C0.175 9.07394 0 8.69922 0 8.20592C0 5.9734 0.3875 4.85714 1.1625 4.85714C1.2 4.85714 1.33594 4.92355 1.57031 5.05636C1.80469 5.18917 2.10938 5.32357 2.48438 5.45954C2.85938 5.59552 3.23125 5.6635 3.6 5.6635C4.01875 5.6635 4.43438 5.59077 4.84688 5.44531C4.81563 5.67932 4.8 5.88802 4.8 6.07143C4.8 6.95052 5.05313 7.76004 5.55938 8.5ZM15.6 14.543C15.6 15.3019 15.3719 15.9011 14.9156 16.3407C14.4594 16.7802 13.8531 17 13.0969 17H4.90313C4.14688 17 3.54063 16.7802 3.08438 16.3407C2.62813 15.9011 2.4 15.3019 2.4 14.543C2.4 14.2078 2.41094 13.8805 2.43281 13.5611C2.45469 13.2417 2.49844 12.897 2.56406 12.5271C2.62969 12.1571 2.7125 11.814 2.8125 11.4978C2.9125 11.1815 3.04688 10.8732 3.21563 10.5728C3.38438 10.2724 3.57813 10.0163 3.79688 9.80441C4.01562 9.59254 4.28281 9.42336 4.59844 9.29688C4.91406 9.17039 5.2625 9.10714 5.64375 9.10714C5.70625 9.10714 5.84063 9.17513 6.04688 9.3111C6.25313 9.44708 6.48125 9.59887 6.73125 9.76646C6.98125 9.93406 7.31563 10.0858 7.73438 10.2218C8.15313 10.3578 8.575 10.4258 9 10.4258C9.425 10.4258 9.84688 10.3578 10.2656 10.2218C10.6844 10.0858 11.0188 9.93406 11.2688 9.76646C11.5188 9.59887 11.7469 9.44708 11.9531 9.3111C12.1594 9.17513 12.2938 9.10714 12.3563 9.10714C12.7375 9.10714 13.0859 9.17039 13.4016 9.29688C13.7172 9.42336 13.9844 9.59254 14.2031 9.80441C14.4219 10.0163 14.6156 10.2724 14.7844 10.5728C14.9531 10.8732 15.0875 11.1815 15.1875 11.4978C15.2875 11.814 15.3703 12.1571 15.4359 12.5271C15.5016 12.897 15.5453 13.2417 15.5672 13.5611C15.5891 13.8805 15.6 14.2078 15.6 14.543ZM6 2.42857C6 3.09896 5.76562 3.67132 5.29688 4.14565C4.82812 4.61998 4.2625 4.85714 3.6 4.85714C2.9375 4.85714 2.37188 4.61998 1.90313 4.14565C1.43438 3.67132 1.2 3.09896 1.2 2.42857C1.2 1.75818 1.43438 1.18583 1.90313 0.711496C2.37188 0.237165 2.9375 0 3.6 0C4.2625 0 4.82812 0.237165 5.29688 0.711496C5.76562 1.18583 6 1.75818 6 2.42857ZM12.6 6.07143C12.6 7.07701 12.2484 7.93555 11.5453 8.64704C10.8422 9.35854 9.99375 9.71429 9 9.71429C8.00625 9.71429 7.15781 9.35854 6.45469 8.64704C5.75156 7.93555 5.4 7.07701 5.4 6.07143C5.4 5.06585 5.75156 4.20731 6.45469 3.49581C7.15781 2.78432 8.00625 2.42857 9 2.42857C9.99375 2.42857 10.8422 2.78432 11.5453 3.49581C12.2484 4.20731 12.6 5.06585 12.6 6.07143ZM18 8.20592C18 8.69922 17.825 9.07394 17.475 9.33008C17.125 9.58622 16.6938 9.71429 16.1813 9.71429H14.925C14.2813 8.93638 13.4531 8.53162 12.4406 8.5C12.9469 7.76004 13.2 6.95052 13.2 6.07143C13.2 5.88802 13.1844 5.67932 13.1531 5.44531C13.5656 5.59077 13.9813 5.6635 14.4 5.6635C14.7688 5.6635 15.1406 5.59552 15.5156 5.45954C15.8906 5.32357 16.1953 5.18917 16.4297 5.05636C16.6641 4.92355 16.8 4.85714 16.8375 4.85714C17.6125 4.85714 18 5.9734 18 8.20592ZM16.8 2.42857C16.8 3.09896 16.5656 3.67132 16.0969 4.14565C15.6281 4.61998 15.0625 4.85714 14.4 4.85714C13.7375 4.85714 13.1719 4.61998 12.7031 4.14565C12.2344 3.67132 12 3.09896 12 2.42857C12 1.75818 12.2344 1.18583 12.7031 0.711496C13.1719 0.237165 13.7375 0 14.4 0C15.0625 0 15.6281 0.237165 16.0969 0.711496C16.5656 1.18583 16.8 1.75818 16.8 2.42857Z" fill="#A6A6A6"/>
</svg>
