<svg width="29" height="28" viewBox="0 0 29 28" fill="none" xmlns="http://www.w3.org/2000/svg">
<path d="M23.4515 23.5655C21.7262 20.6856 19.0675 18.6206 15.9648 17.6417C17.4995 16.7596 18.692 15.4154 19.3589 13.8156C20.0259 12.2158 20.1305 10.4488 19.6567 8.78602C19.1829 7.12325 18.1568 5.65662 16.7362 4.61136C15.3155 3.5661 13.5788 3 11.7926 3C10.0065 3 8.26972 3.5661 6.84905 4.61136C5.42839 5.65662 4.40237 7.12325 3.92857 8.78602C3.45476 10.4488 3.55937 12.2158 4.22632 13.8156C4.89328 15.4154 6.0857 16.7596 7.62047 17.6417C4.5177 18.6195 1.85899 20.6845 0.133713 23.5655C0.0704442 23.6651 0.0284785 23.7759 0.0102918 23.8914C-0.00789485 24.007 -0.00193402 24.1248 0.0278226 24.2381C0.0575792 24.3513 0.110529 24.4577 0.183548 24.5509C0.256566 24.6441 0.348174 24.7222 0.452968 24.7806C0.557761 24.8391 0.673617 24.8766 0.793698 24.8912C0.91378 24.9057 1.03566 24.8968 1.15214 24.8651C1.26861 24.8334 1.37734 24.7795 1.47189 24.7066C1.56644 24.6336 1.64491 24.5432 1.70266 24.4405C3.83688 20.8792 7.60914 18.753 11.7926 18.753C15.9761 18.753 19.7484 20.8792 21.8826 24.4405C21.9403 24.5432 22.0188 24.6336 22.1133 24.7066C22.2079 24.7795 22.3166 24.8334 22.4331 24.8651C22.5496 24.8968 22.6715 24.9057 22.7915 24.8912C22.9116 24.8766 23.0275 24.8391 23.1323 24.7806C23.2371 24.7222 23.3287 24.6441 23.4017 24.5509C23.4747 24.4577 23.5277 24.3513 23.5574 24.2381C23.5872 24.1248 23.5931 24.007 23.5749 23.8914C23.5568 23.7759 23.5148 23.6651 23.4515 23.5655ZM5.44887 10.878C5.44887 9.66656 5.82092 8.48236 6.51798 7.47511C7.21504 6.46786 8.2058 5.6828 9.36497 5.21921C10.5241 4.75563 11.7997 4.63433 13.0302 4.87067C14.2608 5.107 15.3911 5.69035 16.2783 6.54695C17.1655 7.40354 17.7697 8.49491 18.0145 9.68305C18.2592 10.8712 18.1336 12.1027 17.6535 13.2219C17.1733 14.3411 16.3602 15.2977 15.317 15.9707C14.2738 16.6438 13.0473 17.003 11.7926 17.003C10.1107 17.0012 8.49819 16.3554 7.3089 15.2071C6.1196 14.0588 5.45067 12.5019 5.44887 10.878Z" fill="#E0E0E0"/>
</svg>
