<svg width="28" height="29" viewBox="0 0 28 29" fill="none" xmlns="http://www.w3.org/2000/svg">
<path d="M25.2012 10.6315H2.80124M25.2012 10.6315C25.6963 10.6315 26.1711 10.4278 26.5212 10.0653C26.8712 9.7027 27.0679 9.21095 27.0679 8.69819V4.83153C27.0679 4.31877 26.8712 3.82702 26.5212 3.46445C26.1711 3.10188 25.6963 2.89819 25.2012 2.89819H2.80124C2.30617 2.89819 1.83137 3.10188 1.4813 3.46445C1.13124 3.82702 0.93457 4.31877 0.93457 4.83153V8.69819C0.93457 9.21095 1.13124 9.7027 1.4813 10.0653C1.83137 10.4278 2.30617 10.6315 2.80124 10.6315M25.2012 10.6315C25.6963 10.6315 26.1711 10.8352 26.5212 11.1978C26.8712 11.5604 27.0679 12.0521 27.0679 12.5649V16.4315C27.0679 16.9443 26.8712 17.436 26.5212 17.7986C26.1711 18.1612 25.6963 18.3649 25.2012 18.3649M2.80124 10.6315C2.30617 10.6315 1.83137 10.8352 1.4813 11.1978C1.13124 11.5604 0.93457 12.0521 0.93457 12.5649V16.4315C0.93457 16.9443 1.13124 17.436 1.4813 17.7986C1.83137 18.1612 2.30617 18.3649 2.80124 18.3649M25.2012 18.3649H2.80124M25.2012 18.3649C25.6963 18.3649 26.1711 18.5686 26.5212 18.9311C26.8712 19.2937 27.0679 19.7854 27.0679 20.2982V24.1649C27.0679 24.6776 26.8712 25.1694 26.5212 25.5319C26.1711 25.8945 25.6963 26.0982 25.2012 26.0982H2.80124C2.30617 26.0982 1.83137 25.8945 1.4813 25.5319C1.13124 25.1694 0.93457 24.6776 0.93457 24.1649V20.2982C0.93457 19.7854 1.13124 19.2937 1.4813 18.9311C1.83137 18.5686 2.30617 18.3649 2.80124 18.3649M3.73457 6.76486H9.33457M3.73457 14.4982H9.33457M3.73457 22.2315H9.33457" stroke="#E0E0E0"/>
</svg>
